<svg xmlns="http://www.w3.org/2000/svg" width="16" height="16" viewBox="0 0 16 16"><g><g><path fill="#00305b" d="M13.945-.003c1.13 0 2.053.836 2.053 2.053v11.895c0 1.217-.924 2.053-2.053 2.053H2.055c-1.13 0-2.053-.836-2.053-2.053V2.05C.002.833.926-.003 2.055-.003zm-3.01 2.498V4.22c0 .395.324.72.72.72h1.808c.396 0 .72-.325.72-.72V2.495a.723.723 0 0 0-.72-.72h-1.808a.722.722 0 0 0-.72.72zm1.848 4.27c.133.433.205.894.205 1.372 0 2.66-2.227 4.819-4.973 4.819-2.745 0-4.971-2.158-4.971-4.82 0-.477.071-.938.205-1.372h-1.47v6.76c0 .349.287.635.637.635h11.139c.35 0 .636-.286.636-.636V6.764zM8.015 4.848c-1.774 0-3.212 1.394-3.212 3.114s1.438 3.113 3.212 3.113c1.775 0 3.213-1.393 3.213-3.113S9.79 4.849 8.015 4.849z"/></g></g></svg>