<svg xmlns="http://www.w3.org/2000/svg" width="17" height="15" viewBox="0 0 17 15"><g><g><path fill="#00305b" d="M16.74 15.016h-3.412c-.152 0-.274-.11-.274-.244V10.05c0-1.321-.11-2.333-1.5-2.333-1.277 0-1.774.632-1.774 2.251v4.805c0 .135-.123.244-.275.244h-3.41c-.152 0-.275-.11-.275-.244V5.06c0-.135.123-.243.274-.243h3.274c.151 0 .274.108.274.243v.631c.616-.593 1.63-1.116 3.004-1.116 3.85 0 4.368 2.462 4.368 4.87v5.328c0 .135-.122.244-.274.244zM2.244 3.974C1 3.974-.012 3.079-.012 1.98-.012.88 1-.013 2.244-.013c1.242 0 2.253.895 2.253 1.994 0 1.098-1.01 1.993-2.253 1.993zm-1.71.842H3.95c.152 0 .275.108.275.243v9.713c0 .135-.123.244-.275.244H.533c-.151 0-.274-.11-.274-.244V5.06c0-.135.123-.243.274-.243z"/></g></g></svg>