<svg xmlns="http://www.w3.org/2000/svg" width="19" height="14" viewBox="0 0 19 14"><g><g><path fill="#00305b" d="M18.988 1.662a8.432 8.432 0 0 1-2.236.557c.804-.437 1.42-1.132 1.712-1.956a8.34 8.34 0 0 1-2.474.859C15.28.433 14.269.005 13.148.005c-2.15 0-3.893 1.583-3.893 3.535 0 .277.034.548.1.807C6.12 4.198 3.251 2.79 1.331.65a3.27 3.27 0 0 0-.526 1.778c0 1.226.687 2.31 1.731 2.943a4.192 4.192 0 0 1-1.763-.443v.043c0 1.713 1.342 3.143 3.122 3.468a4.31 4.31 0 0 1-1.026.124c-.251 0-.494-.023-.733-.066.496 1.406 1.933 2.429 3.637 2.457-1.332.948-3.012 1.511-4.836 1.511-.314 0-.624-.017-.928-.048a11.824 11.824 0 0 0 5.968 1.59c7.162 0 11.076-5.388 11.076-10.06l-.012-.46a7.427 7.427 0 0 0 1.947-1.826z"/></g></g></svg>